HIERARCHY
ROOT Hips
{
	OFFSET 0.00000 0.00000 0.00000
	CHANNELS 6 Xposition Yposition Zposition Zrotation Yrotation Xrotation 
	JOINT LHipJoint
	{
		OFFSET 0 0 0
		CHANNELS 3 Zrotation Yrotation Xrotation
		JOINT LeftHip
		{
			OFFSET 1.09156 -1.61406 0.76500
			CHANNELS 3 Zrotation Yrotation Xrotation
			JOINT LeftKnee
			{
				OFFSET 2.33750 -6.42225 0.00000
				CHANNELS 3 Zrotation Yrotation Xrotation
				JOINT LeftAnkle
				{
					OFFSET 2.49247 -6.84800 0.00000
					CHANNELS 3 Zrotation Yrotation Xrotation
					JOINT LeftToe
					{
						OFFSET 0.15312 -0.42069 1.45461
						CHANNELS 3 Zrotation Yrotation Xrotation
						End Site
						{
							OFFSET 0.00000 -0.00000 0.77046
						}
					}
				}
			}
		}
	}
	JOINT RHipJoint
	{
		OFFSET 0 0 0
		CHANNELS 3 Zrotation Yrotation Xrotation
		JOINT RightHip
		{
			OFFSET -0.99883 -1.61406 0.76500
			CHANNELS 3 Zrotation Yrotation Xrotation
			JOINT RightKnee
			{
				OFFSET -2.36877 -6.50815 0.00000
				CHANNELS 3 Zrotation Yrotation Xrotation
				JOINT RightAnkle
				{
					OFFSET -2.53452 -6.96353 0.00000
					CHANNELS 3 Zrotation Yrotation Xrotation
					JOINT RightToe
					{
						OFFSET -0.13156 -0.36145 1.63237
						CHANNELS 3 Zrotation Yrotation Xrotation
						End Site
						{
							OFFSET -0.00000 -0.00000 0.84979
						}
					}
				}
			}
		}
	}
	JOINT lowerback
	{
		OFFSET 0 0 0
		CHANNELS 3 Zrotation Yrotation Xrotation
		JOINT Chest
		{
			OFFSET -0.02431 1.98242 -0.13616
			CHANNELS 3 Zrotation Yrotation Xrotation
			JOINT Chest2
			{
				OFFSET 0.03629 1.98974 -0.02954
				CHANNELS 3 Zrotation Yrotation Xrotation
				JOINT lowerneck
				{
					OFFSET 0 0 0
					CHANNELS 3 Zrotation Yrotation Xrotation
					JOINT Neck
					{
						OFFSET 0.09349 1.40783 0.22333
						CHANNELS 3 Zrotation Yrotation Xrotation
						JOINT Head
						{
							OFFSET -0.04273 1.44500 -0.06495
							CHANNELS 3 Zrotation Yrotation Xrotation
							End Site
							{
								OFFSET -0.02251 1.44600 -0.04544
							}
						}
					}
				}
				JOINT LeftCollar
				{
					OFFSET 0 0 0
					CHANNELS 3 Zrotation Yrotation Xrotation
					JOINT LeftShoulder
					{
						OFFSET 3.49137 0.85126 -0.29740
CHANNELS 3 Zrotation Xrotation Yrotation
						JOINT LeftElbow
						{
OFFSET 0 -5.060350 0.000000
CHANNELS 3 Zrotation Xrotation Yrotation
							JOINT LeftWrist
							{
OFFSET 0 -3.147800 0.000000
CHANNELS 3 Zrotation Xrotation Yrotation
								JOINT lhand
								{
									OFFSET 0 0 0
CHANNELS 3 Zrotation Xrotation Yrotation
									JOINT LFingers
									{
OFFSET 0 -0.606750 0.000000
CHANNELS 3 Zrotation Xrotation Yrotation
										End Site
										{
OFFSET 0 -0.489180 0.000000
										}
									}
								}
								JOINT LThumb
								{
OFFSET 0 0.000000 0.000000
CHANNELS 3 Zrotation Xrotation Yrotation
									End Site
									{
OFFSET 0 -0.496640 0.496640
									}
								}
							}
						}
					}
				}
				JOINT RightCollar
				{
					OFFSET 0 0 0
					CHANNELS 3 Zrotation Yrotation Xrotation
					JOINT RightShoulder
					{
						OFFSET -3.28101 0.69707 0.00747
CHANNELS 3 Zrotation Xrotation Yrotation
						JOINT RightElbow
						{
OFFSET 0 -5.122730 -0.000000
CHANNELS 3 Zrotation Xrotation Yrotation
							JOINT RightWrist
							{
OFFSET 0 -3.422000 0.000000
CHANNELS 3 Zrotation Xrotation Yrotation
								JOINT rhand
								{
									OFFSET 0 0 0
CHANNELS 3 Zrotation Xrotation Yrotation
									JOINT RFingers
									{
OFFSET 0 -0.704600 0.000000
CHANNELS 3 Zrotation Xrotation Yrotation
										End Site
										{
OFFSET 0 -0.568070 0.000000
										}
									}
								}
								JOINT RThumb
								{
OFFSET 0 0.000000 0.000000
CHANNELS 3 Zrotation Xrotation Yrotation
									End Site
									{
OFFSET 0 -0.576740 0.576740
									}
								}
							}
						}
					}
				}
			}
		}
	}
}
MOTION
Frames: 9
Frame Time: 0.008333333333333333
6.779315 16.156774 -0.178117 -271.581578 83.191358 -263.754422 0.000000 0.000000 0.000000 -28.443612 1.360213 10.313239 0.680947 5.276090 14.697757 -0.434794 -18.395679 -8.558232 0.001455 -0.241283 -0.662876 0.000000 0.000000 0.000000 9.960057 15.142680 -28.903442 -0.826419 -5.798960 16.202402 -0.348772 -2.312121 -12.247570 -0.247898 -3.202798 8.844003 -9.621056 -2.884994 -4.093335 -2.287935 -2.902643 4.259294 2.655381 -1.797443 7.198835 11.684693 1.043015 -9.757044 -1.759485 0.020535 21.384226 -2.516476 0.902958 8.286078 0.000000 0.000000 0.000000 3.015809 -28.506511 -34.171260 26.784690 -37.972967 9.366358 19.407050 3.956711 -41.956841 0.000000 0.000000 0.000000 -7.125000 0.000000 0.000000 -27.840382 71.909716 18.230392 0.000000 0.000000 0.000000 4.051261 1.529451 9.017974 -7.315418 -12.437234 -0.798203 -22.484983 6.316836 -31.046287 0.000000 0.000000 0.000000 7.125000 0.000000 0.000000 5.079343 -2.988167 5.357932
6.930395 16.126749 -0.175725 -272.007334 83.107638 -264.307073 0.000000 0.000000 0.000000 -28.533458 1.473347 10.939909 0.683593 5.286025 14.726182 -0.527194 -18.400420 -7.470287 0.000590 0.115059 0.316199 0.000000 0.000000 0.000000 10.334202 14.392395 -29.444361 -0.989969 -6.330356 17.746792 -0.270389 -1.765164 -10.622132 -0.046734 -1.253539 3.449547 -10.303837 -3.617056 -3.733980 -1.583283 -4.007490 3.427722 3.696959 -2.346547 6.342912 10.346683 1.347202 -6.915873 -2.043963 1.119450 20.786787 -2.288658 1.288317 7.625573 0.000000 0.000000 0.000000 2.166246 -26.269049 -31.781402 26.761454 -37.950800 9.352103 19.326801 4.469933 -42.103391 0.000000 0.000000 0.000000 -7.125000 0.000000 0.000000 -28.216639 72.002949 18.544308 0.000000 0.000000 0.000000 2.287375 3.189115 11.551848 -7.257569 -12.342328 -0.785762 -22.609382 5.632831 -31.359611 0.000000 0.000000 0.000000 7.125000 0.000000 0.000000 5.055138 -3.335857 5.361162
7.084854 16.117442 -0.172526 -271.438579 83.159362 -263.860197 0.000000 0.000000 0.000000 -28.446648 1.552195 11.560555 0.679211 5.269635 14.679284 -0.628823 -18.541593 -6.351188 0.001775 0.268975 0.738915 0.000000 0.000000 0.000000 10.739231 13.746159 -29.969631 -1.154151 -6.818071 19.178532 -0.183063 -1.418432 -8.701369 -0.014509 -0.767672 2.109778 -9.815054 -3.302619 -3.676346 -1.883965 -3.574675 3.784665 3.150357 -2.119853 6.570018 11.311990 1.291960 -8.244399 -2.130718 0.726893 21.038098 -2.510368 1.166242 7.936059 0.000000 0.000000 0.000000 2.213306 -26.796573 -32.957418 26.304664 -37.507320 9.072767 19.348786 4.563038 -42.253120 0.000000 0.000000 0.000000 -7.125000 0.000000 0.000000 -28.480248 72.133684 18.804852 0.000000 0.000000 0.000000 3.025785 2.308784 9.113464 -6.985898 -11.895929 -0.728926 -22.848098 6.770999 -31.937824 0.000000 0.000000 0.000000 7.125000 0.000000 0.000000 5.008333 -3.979966 5.363715
7.244709 16.119774 -0.168841 -269.435841 83.375783 -261.898952 0.000000 0.000000 0.000000 -28.157903 1.476391 12.103462 0.682032 5.280340 14.709925 -0.728903 -18.663116 -5.139044 0.003106 0.359447 0.987511 0.000000 0.000000 0.000000 11.119254 13.342443 -30.432311 -1.312587 -7.254196 20.471922 -0.132044 -1.101410 -7.342825 -0.058573 -1.507245 4.146627 -9.384589 -3.291565 -3.716326 -1.878000 -3.579338 3.880051 2.913810 -2.109798 6.660697 11.366458 1.234791 -8.512412 -2.098617 0.596364 21.072374 -2.520140 1.110241 7.987876 0.000000 0.000000 0.000000 2.070716 -26.695211 -33.323899 25.853202 -37.062782 8.799319 19.331890 4.586746 -42.087900 0.000000 0.000000 0.000000 -7.125000 0.000000 0.000000 -28.181504 71.991901 18.513789 0.000000 0.000000 0.000000 3.202409 2.035554 7.937965 -6.874386 -11.712334 -0.705913 -22.904862 7.592430 -31.958494 0.000000 0.000000 0.000000 7.125000 0.000000 0.000000 4.979237 -4.013589 5.335178
7.406839 16.121940 -0.163696 -267.991341 83.706224 -260.430429 0.000000 0.000000 0.000000 -27.771867 1.449425 12.420648 0.709920 5.384532 15.008791 -0.807083 -18.700619 -4.027226 0.005589 0.478459 1.314780 0.000000 0.000000 0.000000 11.471866 13.314063 -30.707589 -1.460515 -7.635783 21.614461 -0.106004 -0.924021 -6.554091 -0.082500 -1.850878 5.093753 -8.803462 -3.162303 -3.824155 -1.915221 -3.421332 4.045639 2.561009 -2.014105 6.834978 11.623473 1.135835 -9.179761 -2.075554 0.312011 21.290407 -2.583936 1.003462 8.165558 0.000000 0.000000 0.000000 1.987688 -26.899669 -33.962806 25.213658 -36.419716 8.417212 19.335630 4.515446 -41.673528 0.000000 0.000000 0.000000 -7.125000 0.000000 0.000000 -27.400536 71.649139 17.778582 0.000000 0.000000 0.000000 3.532992 1.629889 6.724714 -6.814740 -11.613963 -0.693864 -22.894709 8.464324 -31.730087 0.000000 0.000000 0.000000 7.125000 0.000000 0.000000 4.949817 -3.777589 5.284384
7.566871 16.117781 -0.157414 -267.298234 84.082606 -259.745648 0.000000 0.000000 0.000000 -27.359101 1.523614 12.476927 0.778878 5.632476 15.722355 -0.867097 -18.627143 -2.906531 0.016910 0.813136 2.235066 0.000000 0.000000 0.000000 11.820267 13.494938 -30.704920 -1.595353 -7.964927 22.608643 -0.078176 -1.113485 -5.798411 -0.071871 -1.724771 4.745789 -8.472249 -3.251293 -3.913490 -1.649241 -3.585634 3.955611 2.637880 -2.088372 6.799699 11.294579 1.137040 -8.852103 -2.046966 0.417158 21.403693 -2.510951 1.038164 8.147277 0.000000 0.000000 0.000000 1.540166 -26.402322 -33.602499 24.619631 -35.811345 8.066874 19.410898 4.810409 -41.465028 0.000000 0.000000 0.000000 -7.125000 0.000000 0.000000 -26.924720 71.500912 17.369162 0.000000 0.000000 0.000000 3.142976 1.707110 6.608968 -6.711771 -11.443868 -0.673361 -22.833937 8.957322 -31.561520 0.000000 0.000000 0.000000 7.125000 0.000000 0.000000 4.958406 -3.591627 5.278509
7.728949 16.109041 -0.151931 -266.026907 84.371434 -258.569215 0.000000 0.000000 0.000000 -27.033612 1.580582 12.393289 0.896417 6.029231 16.870723 -0.902099 -18.281832 -1.542127 0.050435 1.405068 3.864788 0.000000 0.000000 0.000000 12.156007 13.492194 -30.549221 -1.722282 -8.260342 23.508607 -0.047170 -1.341219 -4.786345 -0.076260 -1.777619 4.891582 -8.300795 -3.443448 -3.875714 -1.323150 -3.897298 3.808822 2.858137 -2.239985 6.665024 10.890986 1.193430 -8.420569 -2.082834 0.639629 21.559338 -2.436799 1.118470 8.131019 0.000000 0.000000 0.000000 1.009987 -25.587577 -32.843675 24.094484 -35.262801 7.761564 19.440633 5.249835 -41.599622 0.000000 0.000000 0.000000 -7.125000 0.000000 0.000000 -27.135560 71.623686 17.583250 0.000000 0.000000 0.000000 2.594883 1.852431 6.560773 -6.567975 -11.205982 -0.645179 -22.795936 9.554501 -31.503847 0.000000 0.000000 0.000000 7.125000 0.000000 0.000000 4.971083 -3.524227 5.286669
7.894547 16.100781 -0.147044 -264.174718 84.587614 -256.834332 0.000000 0.000000 0.000000 -26.766878 1.622475 12.174988 1.058391 6.533981 18.344394 -0.916604 -17.816023 -0.091998 0.096831 1.988587 5.474628 0.000000 0.000000 0.000000 12.546253 13.213174 -30.411052 -1.849502 -8.543655 24.379051 -0.042164 -0.753844 -4.281144 -0.075506 -1.770113 4.870771 -7.942075 -3.407037 -3.675163 -1.302117 -3.902510 3.715249 2.698202 -2.219472 6.421522 11.131317 1.115751 -8.478642 -2.118938 0.499123 21.813780 -2.504056 1.081335 8.220091 0.000000 0.000000 0.000000 0.825874 -24.909237 -32.906862 23.505396 -34.634739 7.424418 19.498131 5.520420 -41.791038 0.000000 0.000000 0.000000 -7.125000 0.000000 0.000000 -27.419337 71.803398 17.880315 0.000000 0.000000 0.000000 2.728203 1.804733 5.103526 -6.384543 -10.901865 -0.610081 -22.767624 10.916356 -31.498381 0.000000 0.000000 0.000000 7.125000 0.000000 0.000000 4.986278 -3.512468 5.301992
8.059859 16.096617 -0.142059 -262.199451 84.904270 -254.902135 0.000000 0.000000 0.000000 -26.371358 1.727796 11.701114 1.258674 7.103880 20.026946 -0.946127 -17.641571 1.252863 0.130712 2.328342 6.414109 0.000000 0.000000 0.000000 13.126008 12.814918 -30.359312 -1.977629 -8.817814 25.228201 -0.064695 0.072157 -4.748433 -0.036172 -1.013031 2.786568 -7.701550 -3.612508 -3.700145 -1.026485 -4.225582 3.522669 2.824200 -2.370169 6.268723 10.858758 1.195405 -7.646138 -2.185864 0.782694 21.712537 -2.456323 1.192337 8.049600 0.000000 0.000000 0.000000 0.444941 -23.937530 -32.187490 22.916452 -33.995802 7.092166 19.772624 5.969839 -41.809187 0.000000 0.000000 0.000000 -7.125000 0.000000 0.000000 -27.120665 71.913090 17.740533 0.000000 0.000000 0.000000 2.297924 1.860021 4.464779 -6.151506 -10.514454 -0.566849 -22.665084 12.219342 -31.481325 0.000000 0.000000 0.000000 7.125000 0.000000 0.000000 5.041797 -3.472695 5.358195
